<svg width="51" height="53" viewBox="0 0 51 53" fill="none" xmlns="http://www.w3.org/2000/svg">
<g id="Group 3">
<path id="Vector" fill-rule="evenodd" clip-rule="evenodd" d="M9.14674 8.8484C8.34439 4.67621 11.5538 0.824951 15.726 0.824951C19.4168 0.824951 22.4657 3.87386 22.4657 7.56465V15.909C23.4285 15.909 24.3913 15.7486 25.3541 15.7486C26.3169 15.7486 27.1193 15.7486 28.0821 15.909V7.56465C28.0821 3.87386 31.131 0.824951 34.8218 0.824951C38.994 0.824951 42.2034 4.67621 41.5615 8.8484L39.7963 18.637C46.0546 21.365 50.8687 26.1791 50.8687 32.1164V35.8072C50.8687 40.7817 47.6593 44.9539 43.0057 47.6819C38.3521 50.5704 32.2543 52.175 25.3541 52.175C18.4539 52.175 12.3561 50.5704 7.70252 47.6819C3.20938 44.9539 0 40.7817 0 35.8072V32.1164C0 26.1791 4.6536 21.365 10.9119 18.637L9.14674 8.8484ZM37.3893 19.9208L39.4754 8.367C39.9568 5.47855 37.8707 2.75058 34.8218 2.75058C32.2543 2.75058 30.1682 4.83668 30.1682 7.40418V17.9951C29.5263 17.8347 28.724 17.8347 28.0821 17.8347C27.1193 17.8347 26.3169 17.6742 25.3541 17.6742C24.3913 17.6742 23.4285 17.6742 22.4657 17.8347C21.8238 17.8347 21.0214 17.9951 20.3796 17.9951V7.56465C20.3796 4.99715 18.2935 2.91105 15.726 2.91105C12.8375 2.91105 10.591 5.63902 11.2328 8.52747L13.3189 20.0812C6.57923 22.6487 2.0861 27.1419 2.0861 32.2769V35.9677C2.0861 43.8307 12.5166 50.2494 25.3541 50.2494C38.1916 50.2494 48.6221 43.8307 48.6221 35.9677V32.2769C48.7826 26.9814 44.2895 22.4883 37.3893 19.9208Z" fill="#633001"/>
<path id="Vector_2" d="M48.7827 35.8072C48.7827 43.6702 38.3522 50.089 25.5146 50.089C12.6771 50.089 2.24663 43.6702 2.24663 35.8072V32.1165H48.9431V35.8072H48.7827Z" fill="#FEDC90"/>
<path id="Vector_3" fill-rule="evenodd" clip-rule="evenodd" d="M11.2329 8.52755C10.591 5.63911 12.8376 2.91113 15.726 2.91113C18.2935 2.91113 20.3796 4.99723 20.3796 7.56474V18.1557C21.9843 17.9952 23.589 17.8348 25.3542 17.8348C26.9589 17.8348 28.5636 17.9952 30.1682 18.1557V7.56474C30.1682 4.99723 32.2543 2.91113 34.8218 2.91113C37.7103 2.91113 39.9569 5.63911 39.4754 8.52755L37.3893 20.0813C44.129 22.6488 48.7826 27.142 48.7826 32.277C48.7826 40.14 38.3522 46.5587 25.5146 46.5587C12.6771 46.5587 2.24663 40.14 2.24663 32.277C2.24663 27.142 6.73976 22.6488 13.4795 20.0813L11.2329 8.52755Z" fill="#D1884F"/>
<path id="Vector_4" d="M18.9353 31.1535C18.9353 33.2396 17.812 35.0048 16.3678 35.0048C14.9236 35.0048 13.8003 33.2396 13.8003 31.1535C13.8003 29.0674 14.9236 27.3022 16.3678 27.3022C17.812 27.3022 18.9353 29.0674 18.9353 31.1535Z" fill="#633001"/>
<path id="Vector_5" d="M36.7473 31.1535C36.7473 33.2396 35.6241 35.0048 34.1798 35.0048C32.7356 35.0048 31.6123 33.2396 31.6123 31.1535C31.6123 29.0674 32.7356 27.3022 34.1798 27.3022C35.6241 27.3022 36.7473 29.0674 36.7473 31.1535Z" fill="#633001"/>
</g>
</svg>
