<?xml version="1.0" standalone="no"?>
<!DOCTYPE svg PUBLIC "-//W3C//DTD SVG 20010904//EN"
 "http://www.w3.org/TR/2001/REC-SVG-20010904/DTD/svg10.dtd">
<svg version="1.0" xmlns="http://www.w3.org/2000/svg"
 width="807.000000pt" height="807.000000pt" viewBox="0 0 807.000000 807.000000"
 preserveAspectRatio="xMidYMid meet">
<metadata>
Created by potrace 1.14, written by Peter Selinger 2001-2017
</metadata>
<g transform="translate(0.000000,807.000000) scale(0.100000,-0.100000)"
fill="#000000" stroke="none">
<path d="M3800 8019 c-238 -17 -358 -33 -585 -80 -55 -12 -111 -23 -124 -26
-13 -2 -31 -8 -40 -12 -18 -9 -89 -23 -94 -19 -2 2 -11 -3 -20 -11 -10 -7 -17
-10 -17 -7 0 4 -9 2 -21 -4 -11 -6 -29 -13 -40 -16 -90 -20 -332 -114 -518
-201 -62 -29 -117 -53 -122 -53 -5 0 -9 -4 -9 -8 0 -5 -19 -16 -42 -27 -40
-18 -158 -84 -168 -95 -3 -3 -12 -6 -20 -8 -8 -2 -22 -10 -31 -18 -8 -8 -19
-14 -23 -14 -4 0 -13 -6 -21 -12 -7 -7 -38 -28 -69 -47 -31 -18 -56 -38 -56
-43 0 -5 -4 -7 -8 -4 -5 3 -24 -8 -43 -25 -19 -16 -37 -29 -41 -29 -4 0 -13
-6 -20 -12 -7 -7 -40 -33 -73 -58 -59 -44 -96 -73 -121 -97 -7 -7 -14 -13 -17
-13 -6 0 -82 -68 -161 -144 -39 -39 -74 -69 -78 -68 -4 1 -10 -7 -13 -18 -4
-11 -13 -20 -21 -20 -8 0 -12 -4 -9 -10 3 -5 -1 -10 -9 -10 -9 0 -16 -4 -16
-9 0 -5 -17 -27 -38 -48 -20 -21 -66 -72 -101 -113 -36 -41 -70 -79 -76 -85
-6 -5 -16 -17 -21 -26 -9 -16 -45 -61 -96 -122 -15 -18 -28 -36 -28 -40 0 -4
-11 -20 -25 -35 -14 -15 -25 -31 -25 -35 0 -5 -6 -15 -13 -22 -26 -30 -34 -42
-62 -90 -16 -28 -33 -51 -37 -53 -4 -2 -8 -8 -8 -14 0 -6 -11 -26 -26 -45 -14
-18 -21 -33 -17 -33 4 0 3 -4 -2 -8 -15 -10 -58 -86 -135 -237 -119 -235 -230
-527 -286 -750 -23 -91 -56 -236 -59 -255 -3 -14 -11 -62 -19 -107 -17 -91
-25 -156 -31 -247 -13 -182 -19 -232 -29 -238 -6 -4 -7 -8 -1 -8 6 0 10 -68
11 -183 0 -100 4 -216 8 -257 4 -41 9 -97 12 -125 3 -27 6 -59 8 -70 2 -11 7
-48 11 -83 4 -34 11 -65 16 -68 5 -3 7 -9 4 -14 -6 -10 10 -99 47 -245 16 -66
34 -138 39 -160 13 -49 97 -297 117 -345 9 -19 17 -39 18 -45 1 -5 12 -32 25
-60 13 -27 22 -53 21 -57 -1 -5 2 -8 7 -8 5 0 12 -13 16 -30 4 -16 11 -30 16
-30 5 0 9 -9 9 -19 0 -11 5 -23 10 -26 6 -4 8 -11 5 -16 -4 -5 -2 -9 2 -9 9 0
47 -76 48 -93 0 -4 7 -12 15 -17 8 -5 11 -10 6 -10 -6 0 -1 -7 10 -16 10 -8
13 -13 7 -9 -19 9 -16 -2 9 -31 13 -14 23 -30 23 -34 0 -5 7 -18 15 -28 8 -10
16 -25 18 -32 2 -7 12 -26 23 -41 10 -15 19 -30 19 -34 0 -9 62 -99 72 -103 4
-2 8 -8 8 -13 0 -11 42 -72 53 -77 4 -2 7 -8 7 -14 0 -5 6 -16 13 -23 6 -8 23
-30 37 -50 14 -20 35 -47 47 -60 12 -12 19 -26 16 -29 -3 -3 2 -8 11 -12 9 -4
23 -18 31 -33 7 -14 31 -45 53 -68 22 -24 38 -43 35 -43 -4 0 7 -11 23 -25 16
-14 25 -25 20 -25 -5 0 4 -10 20 -22 16 -12 33 -29 38 -37 17 -29 304 -304
347 -335 11 -7 36 -29 57 -47 20 -19 58 -50 84 -69 27 -18 48 -37 48 -40 0 -4
13 -13 30 -20 17 -7 30 -16 30 -21 0 -4 8 -10 18 -13 9 -3 29 -17 43 -30 15
-14 30 -22 33 -19 3 4 6 2 6 -4 0 -5 16 -18 35 -29 19 -10 35 -22 35 -26 0 -5
6 -8 14 -8 7 0 19 -7 26 -15 7 -8 16 -12 21 -9 5 3 9 0 9 -5 0 -6 7 -11 15
-11 8 0 15 -4 15 -10 0 -5 5 -10 11 -10 6 0 17 -7 26 -15 8 -8 19 -13 24 -10
5 4 9 2 9 -3 0 -4 16 -14 35 -22 19 -8 35 -17 35 -22 0 -4 6 -8 14 -8 7 0 19
-7 26 -15 7 -9 15 -13 18 -11 3 3 17 -3 31 -13 14 -10 43 -24 64 -30 20 -7 37
-16 37 -21 0 -5 14 -11 30 -15 17 -4 30 -10 30 -14 0 -4 6 -8 13 -8 6 0 40
-14 75 -31 34 -17 62 -29 62 -27 0 2 36 -12 80 -30 44 -18 80 -30 80 -27 0 4
4 2 8 -4 4 -7 18 -14 32 -15 14 -2 31 -10 38 -17 8 -7 18 -10 22 -7 5 3 17 1
27 -4 19 -10 143 -49 178 -55 11 -2 32 -9 48 -15 15 -6 27 -8 27 -5 0 2 9 0
19 -5 10 -6 34 -13 52 -15 19 -3 54 -11 79 -17 25 -6 54 -13 65 -15 29 -5 60
-12 60 -14 0 -1 14 -3 30 -5 49 -6 110 -15 141 -21 16 -4 49 -7 74 -9 25 -2
45 -4 45 -5 0 -3 103 -11 153 -13 23 -1 42 -4 42 -7 0 -10 435 -6 442 5 5 6 8
5 8 -3 0 -8 5 -10 12 -5 7 4 29 8 48 10 54 3 150 12 205 18 28 3 66 8 85 10
48 4 121 17 183 30 12 3 33 7 47 10 69 13 86 18 97 27 7 5 17 7 23 3 5 -3 10
-2 10 2 0 5 18 8 40 8 22 0 40 2 40 6 0 6 33 18 73 26 19 3 142 41 167 50 8 4
18 7 22 7 3 1 10 4 14 9 4 4 13 7 20 7 7 0 25 5 41 12 15 6 31 12 36 13 4 2 9
4 12 5 3 1 8 3 13 4 4 1 24 10 46 19 21 9 40 17 43 17 2 0 25 10 51 22 26 12
52 23 58 24 19 3 89 37 95 46 3 5 16 10 27 11 12 1 22 5 22 10 0 4 5 5 10 2 6
-3 10 -2 10 3 0 5 21 19 48 31 26 12 63 31 82 42 19 11 44 25 55 32 11 6 22
12 25 13 19 4 50 21 78 42 17 13 32 20 32 16 0 -5 4 -4 8 2 9 14 119 84 132
84 6 0 10 3 10 8 0 4 25 23 55 42 30 19 55 38 55 43 0 4 6 7 14 7 8 0 16 4 18
8 2 5 24 23 51 41 26 17 47 37 47 43 0 6 3 9 6 5 3 -3 16 5 29 19 12 13 26 24
32 24 5 0 26 18 48 40 21 22 41 38 43 35 6 -6 31 19 26 27 -2 3 9 12 26 20 16
7 30 16 30 19 0 4 64 72 143 150 79 79 149 154 156 167 7 12 16 20 22 17 5 -4
9 0 9 8 0 8 7 18 16 21 9 4 15 9 12 12 -3 3 8 19 24 37 36 39 45 50 89 107 19
25 37 47 42 48 4 2 7 10 7 18 0 8 7 17 15 20 8 4 15 12 15 19 0 7 7 16 16 19
8 3 12 10 9 16 -3 5 -2 10 2 10 5 0 17 16 27 35 11 19 23 35 28 35 4 0 8 6 8
13 0 8 9 22 20 32 11 10 20 26 20 35 0 10 7 21 16 24 8 3 13 10 10 15 -3 5 1
12 10 15 8 3 13 10 10 15 -3 4 6 21 19 37 14 16 33 48 43 71 9 24 20 43 25 43
4 0 7 7 7 15 0 8 5 15 11 15 5 0 7 5 4 10 -3 6 -1 10 5 10 6 0 9 4 6 9 -3 5 1
14 9 21 8 7 12 16 9 21 -3 5 0 9 5 9 6 0 10 3 9 8 -1 4 20 51 45 104 26 54 49
109 53 123 3 14 11 25 17 25 6 0 7 3 4 7 -4 3 -3 11 2 17 4 6 21 47 36 91 16
44 34 83 39 87 6 4 8 8 4 8 -4 0 1 24 11 53 22 59 61 189 67 224 2 12 9 34 14
48 5 14 9 29 8 33 -1 4 5 27 12 52 17 56 13 38 39 180 6 30 13 66 16 80 3 14
8 43 10 65 11 107 18 161 20 175 6 32 17 241 20 360 2 86 -1 127 -9 132 -8 6
-8 8 1 8 6 0 10 10 8 23 -2 12 -6 78 -10 147 -3 69 -8 132 -10 140 -2 8 -6 45
-10 82 -3 37 -8 79 -11 93 -10 59 -30 169 -39 213 -2 13 -6 31 -9 40 -3 9 -7
28 -10 42 -7 43 -58 226 -89 323 -8 26 -13 47 -10 47 3 0 1 6 -4 13 -6 6 -16
30 -23 52 -7 22 -16 45 -20 50 -3 6 -12 30 -20 55 -7 25 -17 49 -22 54 -4 6
-8 18 -8 28 0 10 -5 18 -11 18 -5 0 -7 5 -4 11 4 5 0 18 -9 28 -9 10 -18 28
-21 39 -2 11 -9 31 -16 44 -8 13 -14 25 -14 28 -1 9 -97 195 -106 206 -5 6 -6
14 -2 17 3 4 2 7 -3 7 -6 0 -21 22 -35 50 -13 27 -28 50 -32 50 -5 0 -6 4 -3
9 3 5 -1 14 -9 21 -8 7 -15 19 -15 26 0 8 -4 14 -9 14 -5 0 -14 14 -21 30 -7
17 -16 30 -21 30 -5 0 -9 4 -9 10 0 13 -70 120 -98 150 -12 13 -22 29 -22 36
0 6 -7 15 -16 18 -9 4 -14 9 -11 12 3 3 -2 13 -11 23 -9 9 -28 32 -42 51 -14
19 -33 42 -42 52 -10 10 -15 18 -12 18 3 0 -7 13 -23 29 -15 16 -42 46 -60 67
-17 22 -52 62 -77 89 -25 28 -46 54 -46 58 0 5 -4 5 -10 2 -5 -3 -10 1 -10 9
0 9 -4 16 -10 16 -5 0 -19 9 -30 20 -11 11 -20 25 -20 30 0 6 -4 10 -8 10 -5
0 -31 21 -59 48 -108 101 -154 142 -163 142 -4 0 -10 4 -12 8 -4 10 -164 142
-172 142 -6 0 -13 6 -74 57 -15 13 -32 23 -39 23 -6 0 -13 3 -15 8 -5 10 -127
92 -138 92 -6 0 -10 5 -10 10 0 6 -7 10 -15 10 -8 0 -15 5 -15 12 0 6 -3 9 -6
5 -3 -3 -11 -1 -18 4 -19 17 -143 88 -157 91 -8 2 -16 6 -19 9 -10 13 -270
139 -370 179 -58 23 -118 48 -135 55 -30 13 -176 63 -205 70 -8 3 -53 16 -100
31 -47 14 -92 27 -100 28 -8 1 -28 6 -45 10 -59 14 -110 26 -140 32 -117 22
-187 34 -229 39 -27 4 -56 8 -65 10 -9 1 -50 6 -91 10 -41 3 -88 9 -105 12
-49 8 -462 10 -565 2z"/>
</g>
</svg>
