<svg width="99" height="35" viewBox="0 0 99 35" fill="none" xmlns="http://www.w3.org/2000/svg">
<path id="Vector" d="M63.3182 34.5H72.4348L80.6936 23.8732L85.1865 30.719H94.3031L85.4046 17.8151L98.8687 0.5H89.752L81.1152 11.5994L76.0698 4.28096H67.8692L76.5351 17.5L63.3182 34.5ZM0.868652 11.8429H6.33571V26.9381H10.9013V11.8429H16.3684V8.06192H0.868652V11.8429ZM24.569 8.06192H20.0179V26.9524H24.569V8.06192ZM56.4698 8.06192H51.9188V26.9381H64.685V23.1714H56.4844V19.3905H64.685V15.6095H56.4844V11.8429H64.685V8.06192H56.4698ZM38.2511 17.5L45.5357 8.06192H47.3532V26.9381H42.8022V18.7174L38.2511 24.1167L33.6856 19.3905V26.9381H29.1345V8.06192H30.9666L38.2511 17.5Z" fill="black"/>
</svg>
