<svg width="47" height="55" viewBox="0 0 47 55" fill="none" xmlns="http://www.w3.org/2000/svg">
<g id="Group 1">
<path id="Vector" d="M18.4273 12.7454C17.841 12.6616 17.8131 12.6337 18.0922 12.6058C18.6227 12.522 19.8511 12.6337 20.7165 12.8291C22.7267 13.3037 24.5413 14.5321 26.4677 16.6818L26.9702 17.2681L27.6961 17.1564C30.795 16.6539 33.9777 17.0448 36.6299 18.2732C37.3558 18.6082 38.5005 19.2782 38.64 19.4457C38.6959 19.5016 38.7796 19.8645 38.8355 20.2274C39.0309 21.5396 38.9472 22.5167 38.5284 23.2705C38.305 23.6893 38.305 23.801 38.4446 24.1639C38.5563 24.4431 38.8913 24.6385 39.1984 24.6385C39.8685 24.6385 40.5664 23.5776 40.9014 22.098L41.041 21.5117L41.2923 21.7909C42.7161 23.3822 43.8328 25.5877 44.0004 27.1512L44.0562 27.5699L43.8049 27.207C43.3861 26.5649 42.9953 26.1461 42.4648 25.7832C41.5156 25.1411 40.5106 24.9456 37.8583 24.806C35.4574 24.6664 34.0894 24.471 32.7493 24.0243C30.46 23.2705 29.2874 22.2934 26.5794 18.6919C25.3789 17.1006 24.6251 16.2351 23.8713 15.5093C22.2241 13.9179 20.577 13.0804 18.4273 12.7454Z" fill="#FF007A"/>
<path id="Vector_2" d="M39.2263 16.2909C39.2822 15.23 39.4218 14.532 39.7289 13.8899C39.8405 13.6386 39.9522 13.4153 39.9801 13.4153C40.008 13.4153 39.9522 13.6107 39.8685 13.8341C39.6451 14.4483 39.6172 15.3137 39.7568 16.2909C39.9522 17.5472 40.036 17.7147 41.376 19.0827C41.9902 19.7248 42.7161 20.5344 42.9953 20.8694L43.4699 21.4837L42.9953 21.037C42.409 20.4786 41.0689 19.4177 40.7618 19.2781C40.5664 19.1664 40.5385 19.1664 40.3989 19.306C40.2872 19.4177 40.2593 19.5852 40.2593 20.3948C40.2314 21.6512 40.0639 22.4329 39.6451 23.2425C39.4218 23.6613 39.3938 23.5775 39.5893 23.1029C39.7289 22.74 39.7568 22.5725 39.7568 21.372C39.7568 18.9431 39.4776 18.3568 37.7746 17.3797C37.3558 17.1284 36.6299 16.7655 36.2112 16.57C35.7645 16.3746 35.4295 16.2071 35.4574 16.2071C35.5132 16.1513 37.1604 16.6259 37.8025 16.9051C38.7796 17.2959 38.9472 17.3238 39.0588 17.2959C39.1426 17.2122 39.1984 16.9888 39.2263 16.2909Z" fill="#FF007A"/>
<path id="Vector_3" d="M19.5719 20.4508C18.3993 18.8315 17.6456 16.3189 17.8131 14.4483L17.8689 13.8621L18.1481 13.9179C18.6506 14.0017 19.5161 14.3367 19.9348 14.5879C21.0516 15.258 21.5541 16.1793 22.0287 18.4686C22.1683 19.1386 22.3637 19.9203 22.4475 20.1716C22.5871 20.5904 23.1175 21.5675 23.5642 22.1817C23.8713 22.6284 23.6759 22.8517 22.9779 22.7959C21.917 22.6842 20.4932 21.7071 19.5719 20.4508Z" fill="#FF007A"/>
<path id="Vector_4" d="M37.8025 32.5952C32.2747 30.3617 30.3204 28.4354 30.3204 25.1689C30.3204 24.6943 30.3483 24.3035 30.3483 24.3035C30.3762 24.3035 30.5717 24.471 30.8229 24.6664C31.9397 25.5598 33.196 25.9506 36.6858 26.4532C38.7238 26.7603 39.8964 26.9836 40.9572 27.3466C44.3354 28.4633 46.4292 30.7526 46.9318 33.8515C47.0713 34.7449 46.9876 36.4479 46.7642 37.3413C46.5688 38.0392 46.0104 39.3235 45.8709 39.3514C45.8429 39.3514 45.7871 39.2118 45.7871 38.9885C45.7313 37.8159 45.145 36.6992 44.1678 35.8337C42.9953 34.8286 41.4877 34.0748 37.8025 32.5952Z" fill="#FF007A"/>
<path id="Vector_5" d="M33.8939 33.5164C33.8381 33.0976 33.6985 32.5672 33.6148 32.3438L33.4752 31.925L33.7264 32.2321C34.0894 32.6509 34.3685 33.1534 34.6198 33.8514C34.8152 34.3819 34.8152 34.5494 34.8152 35.4148C34.8152 36.2524 34.7873 36.4478 34.6198 36.9224C34.3406 37.6762 34.0056 38.2066 33.4472 38.7929C32.4422 39.8259 31.13 40.3843 29.2595 40.6355C28.9245 40.6635 27.9753 40.7472 27.1377 40.803C25.0439 40.9147 23.6479 41.1381 22.3916 41.5848C22.2241 41.6406 22.0566 41.6964 22.0287 41.6685C21.9729 41.6127 22.8383 41.1101 23.5363 40.7751C24.5134 40.3005 25.5185 40.0493 27.724 39.6584C28.8128 39.4909 29.9295 39.2675 30.2087 39.1559C32.9726 38.2904 34.3406 36.1407 33.8939 33.5164Z" fill="#FF007A"/>
<path id="Vector_6" d="M36.4345 38.0112C35.7086 36.4198 35.5411 34.9122 35.932 33.4884C35.9878 33.3488 36.0436 33.2092 36.0995 33.2092C36.1553 33.2092 36.3228 33.293 36.4903 33.4047C36.8254 33.628 37.5233 34.0189 39.3101 34.996C41.5715 36.2244 42.8557 37.1736 43.7491 38.2624C44.5308 39.2116 45.0054 40.3005 45.2287 41.6405C45.3683 42.3943 45.2846 44.209 45.0892 44.9628C44.475 47.3358 43.079 49.2343 41.041 50.3231C40.7339 50.4906 40.4826 50.6023 40.4547 50.6023C40.4268 50.6023 40.5385 50.3231 40.706 49.9881C41.376 48.5643 41.4598 47.1963 40.9573 45.6608C40.6502 44.7115 40.008 43.5669 38.7238 41.6405C37.1883 39.4071 36.8254 38.8208 36.4345 38.0112Z" fill="#FF007A"/>
<path id="Vector_7" d="M15.6354 46.5543C17.7014 44.8234 20.242 43.595 22.5871 43.2041C23.5921 43.0366 25.2672 43.0925 26.1885 43.3437C27.6682 43.7346 29.0083 44.5721 29.7062 45.6051C30.3763 46.6102 30.6834 47.4756 30.9905 49.402C31.1021 50.1558 31.2417 50.9375 31.2697 51.105C31.493 52.1101 31.9397 52.8918 32.4981 53.3105C33.3635 53.9527 34.8711 53.9806 36.3508 53.4222C36.602 53.3385 36.8254 53.2547 36.8254 53.2826C36.8812 53.3385 36.1274 53.841 35.6249 54.0923C34.9269 54.4552 34.3686 54.5669 33.6148 54.5669C32.2747 54.5669 31.1301 53.8689 30.2088 52.473C30.0133 52.1938 29.6225 51.3842 29.2875 50.6304C28.3103 48.369 27.8078 47.699 26.6631 46.9452C25.6581 46.3031 24.3739 46.1635 23.3967 46.6381C22.1125 47.2523 21.7775 48.8995 22.6708 49.9045C23.0338 50.3233 23.7038 50.6583 24.2622 50.7421C25.2952 50.8817 26.1885 50.072 26.1885 49.0391C26.1885 48.369 25.9373 47.9782 25.2672 47.6711C24.3738 47.2802 23.3967 47.7269 23.4246 48.5924C23.4246 48.9553 23.5921 49.1786 23.9551 49.3462C24.1784 49.4578 24.1784 49.4578 24.0109 49.4299C23.2013 49.2624 23.0059 48.2573 23.648 47.6152C24.4297 46.8335 26.0769 47.1685 26.6352 48.2573C26.8586 48.704 26.8865 49.5974 26.6911 50.1558C26.2165 51.3842 24.8764 52.0263 23.5084 51.6634C22.5871 51.4121 22.1962 51.1608 21.0795 50.0162C19.1252 48.0061 18.3714 47.6152 15.5796 47.1965L15.0492 47.1127L15.6354 46.5543Z" fill="#FF007A"/>
<path id="Vector_8" fill-rule="evenodd" clip-rule="evenodd" d="M0.950462 1.63383C7.45541 9.53469 17.4781 21.8187 17.9806 22.4887C18.3994 23.0471 18.2318 23.5776 17.5339 23.9684C17.143 24.1918 16.3334 24.4151 15.9425 24.4151C15.4959 24.4151 14.9654 24.1918 14.6025 23.8288C14.3512 23.5776 13.2624 21.9862 10.8056 18.1614C8.93507 15.23 7.34374 12.8011 7.31582 12.7732C7.20414 12.7174 7.20414 12.7174 10.6102 18.8035C12.7599 22.6283 13.4578 23.9963 13.4578 24.1638C13.4578 24.5268 13.3462 24.7222 12.8995 25.2247C12.1457 26.0623 11.8107 27.0115 11.5594 28.9937C11.2802 31.1992 10.5264 32.7627 8.37671 35.4149C7.12039 36.9783 6.92496 37.2575 6.61786 37.8996C6.22701 38.6813 6.11533 39.128 6.0595 40.1331C6.00366 41.194 6.11533 41.864 6.42243 42.8691C6.70162 43.7624 7.00872 44.3487 7.76251 45.4934C8.40463 46.4984 8.79548 47.2522 8.79548 47.5314C8.79548 47.7547 8.85132 47.7547 9.85637 47.5314C12.2573 46.973 14.2395 46.0238 15.3283 44.8512C15.9984 44.1254 16.1659 43.7345 16.1659 42.7295C16.1659 42.0873 16.138 41.9478 15.9705 41.5569C15.6913 40.9427 15.1608 40.4402 14.0162 39.6585C12.5086 38.6255 11.8665 37.7879 11.699 36.6712C11.5594 35.722 11.7269 35.0799 12.5644 33.321C13.4299 31.5063 13.6533 30.7525 13.7928 28.9099C13.8766 27.7374 14.0162 27.2628 14.3512 26.8998C14.7141 26.509 15.0212 26.3694 15.8867 26.2577C17.3105 26.0623 18.2318 25.6993 18.9577 25.0014C19.5998 24.4151 19.879 23.8288 19.9069 22.9634L19.9349 22.3212L19.5719 21.9304C18.2598 20.4228 0.0849965 0.43335 0.00124182 0.43335C-0.0266764 0.43335 0.420015 0.963796 0.950462 1.63383ZM9.52136 41.3335C9.82846 40.8031 9.66095 40.1331 9.15842 39.798C8.68381 39.4909 7.95794 39.6305 7.95794 40.0493C7.95794 40.161 8.01377 40.2727 8.18128 40.3285C8.43255 40.4681 8.46046 40.6077 8.26504 40.9148C8.06961 41.2219 8.06961 41.5011 8.32087 41.6965C8.71173 42.0036 9.24217 41.8361 9.52136 41.3335Z" fill="#FF007A"/>
<path id="Vector_9" fill-rule="evenodd" clip-rule="evenodd" d="M20.8282 26.6486C20.1582 26.844 19.516 27.5699 19.3206 28.2957C19.2089 28.7424 19.2648 29.5521 19.4602 29.8033C19.7673 30.1942 20.0465 30.3059 20.8282 30.3059C22.3637 30.3059 23.6759 29.6358 23.8155 28.8262C23.955 28.1561 23.3688 27.2348 22.5591 26.8161C22.1404 26.5927 21.2749 26.509 20.8282 26.6486ZM22.615 28.0445C22.8383 27.7095 22.7546 27.3465 22.3358 27.0953C21.582 26.6206 20.4373 27.0115 20.4373 27.7374C20.4373 28.1003 21.0236 28.4912 21.582 28.4912C21.9449 28.4912 22.4475 28.2678 22.615 28.0445Z" fill="#FF007A"/>
</g>
</svg>
